<?xml version="1.0" encoding="utf-8"?>
<!-- Generator: Adobe Illustrator 25.0.0, SVG Export Plug-In . SVG Version: 6.00 Build 0)  -->
<svg version="1.1" id="Layer_1" xmlns="http://www.w3.org/2000/svg" xmlns:xlink="http://www.w3.org/1999/xlink" x="0px" y="0px"
	 viewBox="0 0 158 54" style="enable-background:new 0 0 158 54;" xml:space="preserve">
<style type="text/css">
	.st0{fill-rule:evenodd;clip-rule:evenodd;fill:#FFFFFF;}
	.st1{fill-rule:evenodd;clip-rule:evenodd;fill:#175FAD;}
	.st2{fill:#175FAD;}
	.st3{fill-rule:evenodd;clip-rule:evenodd;fill:#097BBB;}
	.st4{fill-rule:evenodd;clip-rule:evenodd;fill:#F05223;}
	.st5{fill-rule:evenodd;clip-rule:evenodd;fill:#F26B21;}
</style>
<path class="st0" d="M26.6,41.4c-3.1,0.5-6.7-2.1-7.3-5.2c-0.5-2.8-1.1-5.5-1.9-8.2c-1.6,2.1-2.5,3.9-3.4,6.5
	c-1.1,3.2-3.2,5.9-6.7,6.5c-1.3,0.2-2.7,0.1-4-0.1L0,40.4l0.9-3.2C4.2,26,8.2,14.1,13.8,3.9c1.2-2.3,3.8-4.2,6.5-3.1
	c2.6,1,3,3.9,2.6,6.3c-0.1,0.4-0.1,0.7-0.2,1.1c3.5-3,7.3-5.7,11.5-7.6c2.1-0.9,4.5-0.8,6,1.1c1.7,2.1,1.2,5.3-0.8,6.9
	c-0.9,0.8-1.8,1.5-2.7,2.3c-1.1,1,0.5,1.5,1.7,0.7c1.7-1,3.6-1.6,5.1-2C47,8.8,50.9,9,53.9,11.2c0.2-0.6,0.4-1.3,0.6-1.9
	c0.8-2.4,1.6-4.7,2.4-7.1l0.7-2l2.1,0c3.8,0,7.6,0.2,11.4,0.2C75.8,0.3,82.3,1,83.3,6.6c0.2,1.1,0.3,2,0.2,3
	c1.1-0.2,2.4-0.1,3.5,0.6c1.9,1.2,2.5,3.3,2.2,5.3c-0.4,2,1.2,1.9,1.7,0c0.7-1.6,1.5-3,2.5-4c1.8-1.7,4.4-2.8,6.7-1.3
	c0.1,0.1,0.2,0.1,0.3,0.2c0.8-1.7,1.6-3.3,2.5-4.9c1.7-3.1,4.9-5.9,8.7-4.6c3.1,1.1,4.2,4.4,4,7.4c-0.1,1.7-0.2,3.3-0.3,5
	c1.8-2.9,3.6-5.9,5.4-8.9c0.6-1,1.4-1.8,2.3-2.5c3.6-2.6,7.8-2.3,9.6,0.5c2.1-2.4,6-2.9,8.4-0.7c1.6,1.5,1.9,3.6,1.3,5.6
	c-1.3,4.2-2.8,8.6-4.5,12.7c1.3,0.3,2.9,1,4.4,1.9c0.9-1,2.4-1.3,3.8-1.3c2.9,0.1,8.2,3.7,10.2,5.8c1,1,1.6,2.4,1.4,3.8
	c-0.3,3.7-4.6,5.4-7.5,6.8c-2.5,1.3-5.1,2.7-7.7,3.7c-0.6,0.2-1.3,0.3-1.9,0.3c0.7,1,1.1,2.2,1.1,3.5c0,4.9-4,8.8-8.8,8.8H30.3
	c-3.4,0-6.2-2.8-6.2-6.2C24.1,45.2,25,43,26.6,41.4z"/>
<path class="st1" d="M125.2,32c1.9-1.8,5-0.1,4.2,1.6c-0.1,2.1-1.5,3.3-3.3,4c-1.2,0.3-2.5,0.9-3.3-0.2
	C122.3,35.6,123.8,33.4,125.2,32z M92.8,38.6c3.6-11,7.1-21.9,12.7-31.6c2.7-5.3,7.5-4,7.1,1.3c-0.2,3.7-0.4,7.4-0.7,11.1
	c-0.1,2.1,1.8,1.8,2.8,0.4c2.8-4.6,5.6-9.1,8.4-13.7c2-3.3,8.7-4.7,7.1,0.9c-1.7,9.8-4.9,19.1-9.1,28.1c-0.9,2.8-4.5,3.8-4,0.6
	c1.3-4.9,2.6-9.8,3.9-14.6c0.7-2.9-1.2-1.4-3,2c-2.2,4-3.9,7.7-6.7,11.9c-3.3,5-6.6,4.8-6.5-0.7c0.2-3.4,0.5-6.8,0.8-10.3
	c0.3-3.7-0.6-4.4-2.1-0.3C99,37.2,95.8,39.1,92.8,38.6z M62.4,23.1c-0.9,0.9-1.6,3.4-2.2,7.3c0,1.3,0.5,1.9,1.4,2
	c1.5,0,3.3,0.1,4.7,0c6.6-0.2,9.7-8.8,3.4-9.3C67.1,23.1,65,23.1,62.4,23.1z M67.5,9.3c-1.1,0-2.2,3.8-2.2,6.1
	c-0.2,1.9,1.6,1.6,3,1.7c4.6,0.1,6.6-1.4,8.1-4c1.1-2.6,0.5-3.9-2.5-3.9C71.7,9.2,69.6,9.3,67.5,9.3z M59.7,3.1
	c-3.6,10.4-7.1,21.6-8.5,30.7c-0.4,4.4,1,4.9,3.8,4.9c2.8,0,5.6-0.1,8.4-0.1c3.7-0.3,7.3-1.8,10.3-5.4c0.5-0.6,1-0.3,0.9,0.1
	c0,4.1,3.6,8.3,10.6,3.2c1.5-0.8,2-0.7,2,0.2c0,0.6-0.2,1.2-0.4,1.7c3.9,0.3,7.9-7.7,12.1-23.5c0.2-2.4-1.4-3.4-3.6-1.2
	c-2.9,2.7-4.1,13.3-7,16.9c-3.9,5.8-7.7,2.5-7-0.2c1.6-7.3,3.6-8.6,4.8-15.2c0.6-3.3-2.9-3.9-4.9-0.7c-1.3,2.3-2.2,4.8-2.9,7.3
	c-0.9,2.4-2.3,2.2-2.7,0.8c-0.2-1.2-1-2.2-2-3c4.3-3,7.4-6.6,6.6-12.6c-0.6-2.9-4-3.9-9.2-3.7C67.4,3.3,63.5,3.2,59.7,3.1z
	 M45.1,26.8c-0.9-0.3-3.3,0.6-4.8,1.6c-2.7,2.1-2.5,3.1-2.2,4.5c0.6,1.5,3.7,1.1,5.9-1.3C46.2,29.2,46.4,27.4,45.1,26.8z M40.8,19.8
	c-0.6,1.4-5.2,0-4.7-1.8c0.2-3.6,11.3-8.5,16.5-3.9c3.6,4.1-4.7,15.2-4.6,23c0,0.8-0.5,1.2-1.5,1.2c-1,0-2,0-2.9,0
	c-0.9,0-1.6-0.6-2.2-1.5c-2.6,2.3-10.2,3.4-11.1-0.7c-0.7-3.5-0.8-6.4,4-10.1c2.8-1.9,6.3-2.5,10.8-3.4c1.9-0.8,2.9-3.7,1-4.5
	C44,17,42.3,18.1,40.8,19.8z M3.8,38c3.5-12,7.4-23.7,12.6-32.7c1.5-2.8,4.4-2.6,3.6,1.2c-0.4,2.2-1,4.4-1.8,6.5
	c-0.5,1.6,0.7,2.7,2.9,0.6c5.2-5.1,9.7-8,14.2-10.3c2.9-1.1,3.6,1.7,2.1,3.1c-6.5,5-12,10.5-9.8,20.7c0.5,2.9,0.8,5.9,0.5,8.8
	c-1.1,4.9-5.5,2-5.8-0.1c-0.7-3.2-1.3-6.5-2.3-9.6c-0.7-2.5-2.5-3-4.4-0.4c-1.6,2-3.1,3.8-4.2,7.8C9.2,38.3,6.6,38.4,3.8,38z
	 M127.4,27.9c-0.1,1.6,1.3,2.2,3.1-0.2c3.4-5.9,6.3-13.1,8.9-21c1.1-3.7-3.7-4.2-5-1.6C131.9,9.5,129.6,17.8,127.4,27.9z"/>
<path class="st2" d="M132.7,50.6l0.8-3c0.1-0.4,0.3-0.8,0.4-1.1c0.2-0.3,0.4-0.6,0.6-0.9c0.2-0.3,0.4-0.5,0.7-0.6
	c0.2-0.1,0.5-0.2,0.7-0.2c0.1,0,0.1,0,0.2,0c0.1,0,0.1,0,0.1,0l0.3-1.2c0,0-0.1,0-0.2,0c-0.1,0-0.1,0-0.2,0c-0.3,0-0.6,0.1-0.9,0.2
	c-0.3,0.1-0.5,0.3-0.8,0.6c-0.2,0.2-0.4,0.5-0.6,0.8h0c0.1-0.3,0.1-0.5,0.2-0.8c0.1-0.2,0.1-0.5,0.2-0.7h-1c0,0.2-0.1,0.5-0.2,0.7
	c-0.1,0.3-0.1,0.5-0.2,0.8c-0.1,0.3-0.1,0.6-0.2,0.9l-1.2,4.4L132.7,50.6L132.7,50.6z M126.8,47.3c0.1-0.4,0.3-0.8,0.5-1.1
	c0.2-0.3,0.4-0.6,0.6-0.8c0.2-0.2,0.5-0.4,0.7-0.5c0.3-0.1,0.5-0.2,0.8-0.2c0.2,0,0.4,0,0.6,0.1c0.2,0.1,0.3,0.2,0.4,0.4
	c0.1,0.2,0.2,0.3,0.2,0.5c0,0.2,0,0.4,0,0.6c0,0.3-0.1,0.6-0.2,1c-0.1,0.3-0.3,0.7-0.4,1c-0.2,0.3-0.4,0.6-0.7,0.9
	c-0.3,0.3-0.5,0.5-0.8,0.6c-0.3,0.1-0.6,0.2-1,0.2c-0.4,0-0.6-0.1-0.8-0.3c-0.2-0.2-0.2-0.4-0.2-0.7c0-0.2,0-0.3,0.1-0.5
	c0-0.1,0.1-0.3,0.1-0.4L126.8,47.3z M127.5,40.6l-2.1,7.4c0,0.2-0.1,0.3-0.1,0.5c0,0.2-0.1,0.4-0.1,0.5c0,0.4,0,0.8,0.2,1
	c0.2,0.3,0.4,0.4,0.7,0.6c0.3,0.1,0.7,0.2,1.1,0.2c0.5,0,0.9-0.1,1.3-0.2c0.4-0.1,0.8-0.3,1.1-0.5c0.3-0.2,0.6-0.5,0.9-0.8
	c0.3-0.3,0.5-0.6,0.7-1c0.2-0.4,0.3-0.7,0.5-1.1c0.1-0.4,0.2-0.7,0.2-1.1c0-0.3,0-0.6,0-0.9c-0.1-0.3-0.1-0.6-0.3-0.8
	c-0.1-0.2-0.3-0.4-0.6-0.6c-0.3-0.1-0.6-0.2-0.9-0.2c-0.3,0-0.6,0.1-0.9,0.2c-0.3,0.1-0.6,0.3-0.9,0.5c-0.3,0.2-0.5,0.5-0.8,0.8h0
	l1.3-4.4H127.5z M123.2,50.8c0.2,0,0.3,0,0.5-0.1c0.1-0.1,0.3-0.2,0.3-0.3c0.1-0.1,0.1-0.3,0.2-0.5c0-0.2,0-0.3-0.1-0.4
	c-0.1-0.1-0.1-0.2-0.2-0.3c-0.1-0.1-0.3-0.1-0.4-0.1c-0.2,0-0.3,0-0.5,0.1c-0.1,0.1-0.3,0.2-0.3,0.3c-0.1,0.1-0.1,0.3-0.2,0.5
	c0,0.2,0,0.3,0.1,0.4c0.1,0.1,0.1,0.2,0.2,0.3C122.9,50.7,123.1,50.8,123.2,50.8L123.2,50.8L123.2,50.8z M113,50.6l0.9-3.4
	c0.1-0.4,0.2-0.7,0.4-1c0.2-0.3,0.4-0.6,0.6-0.8c0.2-0.2,0.5-0.4,0.7-0.5c0.2-0.1,0.5-0.2,0.7-0.2c0.3,0,0.5,0.1,0.6,0.2
	c0.1,0.1,0.2,0.3,0.3,0.4c0,0.2,0,0.4,0,0.6c0,0.1,0,0.3-0.1,0.4c0,0.1-0.1,0.3-0.1,0.4l-1.1,4h1.1l0.9-3.5c0.1-0.4,0.2-0.7,0.4-1
	c0.2-0.3,0.4-0.6,0.6-0.8c0.2-0.2,0.4-0.4,0.7-0.5c0.2-0.1,0.5-0.2,0.7-0.2c0.3,0,0.5,0,0.6,0.1c0.1,0.1,0.2,0.2,0.3,0.4
	c0.1,0.2,0.1,0.4,0,0.6c0,0.1,0,0.3-0.1,0.4c0,0.2-0.1,0.3-0.1,0.4l-1.1,3.9h1.1l1.1-4c0-0.1,0.1-0.3,0.1-0.4c0-0.1,0.1-0.3,0.1-0.4
	c0-0.1,0-0.2,0-0.4c0-0.3,0-0.6-0.1-0.8c-0.1-0.2-0.2-0.4-0.3-0.6c-0.1-0.1-0.3-0.2-0.5-0.3c-0.2-0.1-0.4-0.1-0.6-0.1
	c-0.5,0-1,0.1-1.4,0.4c-0.5,0.3-0.8,0.6-1.2,1.1c0-0.3,0-0.6-0.1-0.8c-0.1-0.2-0.3-0.4-0.5-0.5c-0.2-0.1-0.5-0.2-0.8-0.2
	c-0.5,0-0.9,0.1-1.3,0.4c-0.4,0.2-0.8,0.6-1.2,1.1h0l0.3-1.3h-1c-0.1,0.3-0.1,0.6-0.2,0.9c-0.1,0.3-0.2,0.7-0.3,1.1l-1.3,4.9H113z
	 M108.1,49.8c-0.3,0-0.6-0.1-0.8-0.3c-0.2-0.2-0.4-0.4-0.5-0.7c-0.1-0.3-0.1-0.6-0.1-1c0-0.3,0.1-0.6,0.2-1c0.1-0.3,0.2-0.6,0.4-0.9
	c0.2-0.3,0.4-0.5,0.6-0.8c0.2-0.2,0.5-0.4,0.7-0.5c0.3-0.1,0.5-0.2,0.8-0.2c0.3,0,0.6,0.1,0.8,0.2c0.2,0.1,0.3,0.3,0.5,0.5
	c0.1,0.2,0.2,0.4,0.2,0.6c0,0.2,0,0.4,0,0.6c0,0.3-0.1,0.6-0.2,1c-0.1,0.3-0.2,0.6-0.4,0.9c-0.2,0.3-0.4,0.5-0.6,0.8
	c-0.2,0.2-0.5,0.4-0.7,0.5C108.7,49.8,108.4,49.8,108.1,49.8L108.1,49.8L108.1,49.8z M107.9,50.8c0.5,0,0.9-0.1,1.3-0.2
	c0.4-0.2,0.8-0.4,1.1-0.7c0.3-0.3,0.6-0.6,0.9-1c0.3-0.4,0.4-0.8,0.6-1.2c0.1-0.4,0.2-0.8,0.3-1.3c0-0.4,0-0.7-0.1-1.1
	c-0.1-0.3-0.2-0.6-0.4-0.9c-0.2-0.3-0.5-0.5-0.8-0.6c-0.3-0.2-0.7-0.2-1.2-0.2c-0.4,0-0.9,0.1-1.3,0.2c-0.4,0.2-0.8,0.4-1.1,0.6
	c-0.3,0.3-0.6,0.6-0.9,1c-0.3,0.4-0.5,0.8-0.6,1.2c-0.2,0.4-0.3,0.9-0.3,1.3c0,0.4,0,0.8,0.1,1.1c0.1,0.3,0.2,0.6,0.4,0.9
	c0.2,0.3,0.5,0.5,0.8,0.6C107.1,50.7,107.5,50.8,107.9,50.8L107.9,50.8L107.9,50.8z M104.7,49.4c-0.1,0.1-0.3,0.1-0.4,0.2
	c-0.2,0.1-0.3,0.1-0.5,0.1c-0.2,0-0.4,0.1-0.7,0.1c-0.4,0-0.7-0.1-0.9-0.2c-0.2-0.1-0.4-0.4-0.5-0.6c-0.1-0.3-0.1-0.6-0.1-1
	c0-0.3,0.1-0.6,0.2-1c0.1-0.3,0.3-0.6,0.5-0.9c0.2-0.3,0.4-0.5,0.7-0.8c0.3-0.2,0.5-0.4,0.8-0.5c0.3-0.1,0.6-0.2,1-0.2
	c0.3,0,0.5,0,0.7,0.1c0.2,0,0.3,0.1,0.5,0.2l0.4-0.9c-0.1,0-0.2-0.1-0.3-0.1c-0.1,0-0.3-0.1-0.5-0.1c-0.2,0-0.4,0-0.6-0.1
	c-0.5,0-1,0.1-1.4,0.2c-0.4,0.2-0.8,0.4-1.2,0.7c-0.4,0.3-0.7,0.6-1,1c-0.3,0.4-0.5,0.8-0.7,1.2c-0.2,0.4-0.3,0.9-0.3,1.4
	c0,0.4,0,0.7,0.1,1c0.1,0.3,0.2,0.6,0.4,0.8c0.2,0.2,0.5,0.4,0.8,0.6c0.3,0.1,0.7,0.2,1.1,0.2c0.3,0,0.6,0,0.9-0.1
	c0.3,0,0.5-0.1,0.7-0.2c0.2-0.1,0.4-0.1,0.5-0.2L104.7,49.4z M98.4,50.8c0.2,0,0.3,0,0.5-0.1c0.1-0.1,0.3-0.2,0.3-0.3
	c0.1-0.1,0.1-0.3,0.2-0.5c0-0.2,0-0.3-0.1-0.4c-0.1-0.1-0.1-0.2-0.2-0.3C99,49,98.8,49,98.7,49c-0.2,0-0.3,0-0.5,0.1
	c-0.1,0.1-0.3,0.2-0.3,0.3c-0.1,0.1-0.1,0.3-0.2,0.5c0,0.2,0,0.3,0.1,0.4c0.1,0.1,0.1,0.2,0.2,0.3C98.1,50.7,98.2,50.8,98.4,50.8
	L98.4,50.8L98.4,50.8z M88.5,50.6l0.8-3.1c0.1-0.5,0.3-0.9,0.5-1.2c0.2-0.3,0.4-0.6,0.7-0.8c0.2-0.2,0.5-0.3,0.7-0.3
	c0.2,0,0.3,0,0.4,0.1c0.1,0.1,0.1,0.2,0.2,0.3c0,0.1,0,0.3,0,0.4c0,0.1,0,0.2-0.1,0.4c0,0.1-0.1,0.3-0.1,0.4l-1,3.8h2l0.8-3.1
	c0.1-0.5,0.3-0.9,0.5-1.2c0.2-0.3,0.4-0.6,0.6-0.8c0.2-0.2,0.5-0.3,0.7-0.3c0.2,0,0.3,0,0.4,0.1c0.1,0.1,0.2,0.2,0.2,0.3
	c0,0.1,0,0.3,0,0.4c0,0.1,0,0.3-0.1,0.4c0,0.1-0.1,0.3-0.1,0.4l-1,3.8h2l1.1-4c0-0.1,0.1-0.3,0.1-0.4c0-0.1,0.1-0.3,0.1-0.4
	c0-0.1,0-0.3,0-0.4c0-0.4,0-0.7-0.1-1c-0.1-0.3-0.3-0.5-0.5-0.6c-0.2-0.1-0.5-0.2-0.9-0.2c-0.3,0-0.6,0-0.9,0.1
	c-0.3,0.1-0.6,0.2-0.8,0.4c-0.3,0.2-0.5,0.4-0.8,0.7c0-0.2,0-0.3-0.1-0.5c-0.1-0.2-0.1-0.3-0.3-0.4c-0.1-0.1-0.3-0.2-0.5-0.3
	c-0.2-0.1-0.4-0.1-0.7-0.1c-0.4,0-0.9,0.1-1.3,0.3c-0.4,0.2-0.8,0.5-1.2,1h0l0.2-1.1h-1.8c-0.1,0.3-0.1,0.7-0.2,1
	c-0.1,0.4-0.2,0.8-0.3,1.2l-1.3,4.7L88.5,50.6L88.5,50.6z M85.3,43.7l-0.9,3.2c-0.1,0.5-0.3,0.9-0.5,1.2c-0.2,0.3-0.4,0.6-0.7,0.8
	c-0.2,0.2-0.5,0.3-0.7,0.3c-0.2,0-0.3,0-0.4-0.1c-0.1-0.1-0.2-0.2-0.2-0.3c0-0.1,0-0.3,0-0.4c0-0.1,0-0.3,0.1-0.4
	c0-0.2,0.1-0.3,0.1-0.5l1-3.7h-2l-1.1,3.9C80,47.8,80,48,79.9,48.2c0,0.2-0.1,0.4-0.1,0.6c0,0.4,0,0.8,0.1,1.1
	c0.1,0.3,0.3,0.5,0.6,0.6c0.3,0.1,0.6,0.2,0.9,0.2c0.4,0,0.8-0.1,1.3-0.3c0.4-0.2,0.8-0.5,1.2-1l0,0l-0.2,1.1h1.8
	c0.1-0.3,0.2-0.7,0.3-1c0.1-0.4,0.2-0.8,0.3-1.2l1.3-4.7L85.3,43.7L85.3,43.7z M75,47.1c0.1-0.4,0.3-0.7,0.5-1
	c0.2-0.3,0.4-0.5,0.7-0.7c0.2-0.2,0.5-0.2,0.7-0.2c0.2,0,0.4,0.1,0.5,0.2c0.1,0.1,0.2,0.2,0.3,0.4c0.1,0.2,0.1,0.4,0,0.6
	c0,0.2-0.1,0.5-0.2,0.8c-0.1,0.3-0.2,0.5-0.3,0.8c-0.1,0.2-0.3,0.5-0.5,0.7c-0.2,0.2-0.4,0.4-0.6,0.5c-0.2,0.1-0.4,0.2-0.7,0.2
	c-0.2,0-0.4-0.1-0.5-0.2c-0.1-0.1-0.2-0.3-0.2-0.6c0-0.1,0-0.3,0-0.4c0-0.1,0.1-0.2,0.1-0.4L75,47.1z M74.8,40.6l-2,7
	c-0.1,0.2-0.1,0.4-0.2,0.6c0,0.2-0.1,0.4-0.1,0.6c-0.1,0.6,0.1,1.1,0.5,1.4c0.4,0.3,1,0.5,1.8,0.5c0.6,0,1.2-0.1,1.7-0.3
	c0.5-0.2,1-0.4,1.4-0.8c0.4-0.3,0.7-0.7,1-1.1c0.3-0.4,0.5-0.8,0.6-1.3c0.2-0.5,0.3-0.9,0.3-1.4c0-0.3,0-0.6-0.1-0.9
	c-0.1-0.3-0.2-0.5-0.3-0.8c-0.2-0.2-0.4-0.4-0.6-0.5c-0.3-0.1-0.6-0.2-0.9-0.2c-0.3,0-0.6,0-0.8,0.1c-0.3,0.1-0.5,0.2-0.8,0.3
	c-0.2,0.1-0.4,0.3-0.6,0.5h0l1.2-4H74.8z M70.1,46.7c-0.2,0.6-0.3,1-0.6,1.4c-0.2,0.4-0.4,0.6-0.7,0.8c-0.2,0.2-0.4,0.2-0.7,0.2
	c-0.2,0-0.3,0-0.5-0.1c-0.1-0.1-0.2-0.2-0.2-0.4c0-0.2-0.1-0.4,0-0.6c0-0.3,0.1-0.5,0.2-0.8c0.1-0.3,0.2-0.5,0.4-0.8
	c0.2-0.3,0.3-0.5,0.5-0.7c0.2-0.2,0.4-0.4,0.7-0.5c0.2-0.1,0.5-0.2,0.8-0.2c0.1,0,0.2,0,0.3,0c0.1,0,0.2,0,0.3,0L70.1,46.7z
	 M71.4,50.6c0-0.2,0-0.5,0.1-0.7c0-0.3,0.1-0.5,0.1-0.8c0-0.3,0.1-0.6,0.2-0.8c0.1-0.3,0.1-0.5,0.2-0.7l1-3.6
	c-0.2-0.1-0.4-0.1-0.6-0.2c-0.2-0.1-0.5-0.1-0.8-0.1c-0.3,0-0.5,0-0.8,0c-0.7,0-1.3,0.1-1.8,0.3c-0.6,0.2-1,0.4-1.5,0.7
	c-0.4,0.3-0.8,0.7-1.1,1.1c-0.3,0.4-0.5,0.8-0.7,1.3c-0.2,0.5-0.3,0.9-0.3,1.4c0,0.5,0,0.9,0.2,1.3c0.1,0.4,0.4,0.6,0.7,0.8
	c0.3,0.2,0.7,0.3,1.1,0.3c0.3,0,0.5,0,0.8-0.1c0.3-0.1,0.6-0.3,0.8-0.5c0.3-0.2,0.5-0.5,0.8-0.9h0c0,0.2-0.1,0.5-0.1,0.7
	c0,0.2-0.1,0.5-0.1,0.7H71.4z M60.6,50.6l0.6-2.2l0.8-0.7l1,3h2.3l-1.6-4.1l3.2-2.9h-2.5l-1.9,2.1c-0.1,0.1-0.2,0.2-0.3,0.4
	c-0.1,0.1-0.2,0.3-0.4,0.4h0l1.7-6h-2l-2.8,10L60.6,50.6L60.6,50.6z M57.2,50.8c0.2,0,0.3,0,0.5-0.1c0.1-0.1,0.3-0.2,0.3-0.3
	c0.1-0.1,0.1-0.3,0.2-0.5c0-0.2,0-0.3-0.1-0.4c-0.1-0.1-0.1-0.2-0.2-0.3C57.7,49,57.6,49,57.4,49c-0.2,0-0.3,0-0.5,0.1
	c-0.1,0.1-0.3,0.2-0.3,0.3c-0.1,0.1-0.1,0.3-0.2,0.5c0,0.2,0,0.3,0.1,0.4c0.1,0.1,0.1,0.2,0.2,0.3C56.9,50.7,57,50.8,57.2,50.8
	L57.2,50.8L57.2,50.8z M48.8,43.8l0.1,6.9H50l2.3-3.8c0.1-0.2,0.2-0.4,0.3-0.6c0.1-0.2,0.2-0.4,0.3-0.6c0.1-0.2,0.2-0.4,0.3-0.6h0
	c0,0.3,0,0.6-0.1,0.9c0,0.3,0,0.6,0,0.9l0.1,3.7h1.1l4-6.9h-1.2L55,47.7c-0.2,0.3-0.3,0.6-0.4,0.9c-0.1,0.3-0.2,0.6-0.4,0.8h0
	c0-0.2,0-0.5,0-0.8c0-0.3,0-0.6,0-1l-0.1-3.9h-1l-2.4,4c-0.2,0.3-0.4,0.7-0.5,0.9c-0.2,0.3-0.3,0.5-0.4,0.8h0c0-0.2,0-0.4,0.1-0.5
	c0-0.2,0-0.4,0-0.6c0-0.2,0-0.4,0-0.7l0.1-3.9L48.8,43.8L48.8,43.8z M39.3,43.8l0.1,6.9h1.1l2.3-3.8c0.1-0.2,0.2-0.4,0.3-0.6
	c0.1-0.2,0.2-0.4,0.3-0.6c0.1-0.2,0.2-0.4,0.3-0.6h0c0,0.3,0,0.6-0.1,0.9c0,0.3,0,0.6,0,0.9l0.1,3.7h1.1l4-6.9h-1.2l-2.2,3.9
	c-0.2,0.3-0.3,0.6-0.4,0.9c-0.1,0.3-0.2,0.6-0.4,0.8h0c0-0.2,0-0.5,0-0.8c0-0.3,0-0.6,0-1l-0.1-3.9h-1l-2.4,4
	c-0.2,0.3-0.4,0.7-0.5,0.9c-0.2,0.3-0.3,0.5-0.4,0.8h0c0-0.2,0-0.4,0.1-0.5c0-0.2,0-0.4,0-0.6c0-0.2,0-0.4,0-0.7l0.1-3.9L39.3,43.8
	L39.3,43.8z M29.9,43.8l0.1,6.9H31l2.3-3.8c0.1-0.2,0.2-0.4,0.3-0.6c0.1-0.2,0.2-0.4,0.3-0.6c0.1-0.2,0.2-0.4,0.3-0.6h0
	c0,0.3,0,0.6-0.1,0.9c0,0.3,0,0.6,0,0.9l0.1,3.7h1.1l4-6.9h-1.2L36,47.7c-0.2,0.3-0.3,0.6-0.4,0.9c-0.1,0.3-0.2,0.6-0.4,0.8h0
	c0-0.2,0-0.5,0-0.8c0-0.3,0-0.6,0-1l-0.1-3.9h-1l-2.4,4c-0.2,0.3-0.4,0.7-0.5,0.9c-0.2,0.3-0.3,0.5-0.4,0.8h0c0-0.2,0-0.4,0.1-0.5
	c0-0.2,0-0.4,0-0.6c0-0.2,0-0.4,0-0.7l0.1-3.9L29.9,43.8L29.9,43.8z"/>
<path class="st3" d="M101.5,26.5c0.4-1,0.7-2,1.1-2.9v0c0.3-0.8,0.7-1.7,1.1-2.4c0.4-0.6,1-1.2,1.8-1c0.8,0.2,1.1,1,1.2,1.7
	c0.1,0.8,0,1.6,0,2.4l-0.1,2.1c3.1-0.2,6.2-0.6,9.2-1c0.5-0.8,0.9-1.7,1.4-2.6c0.5-1,1.1-2.1,1.9-2.9c0.2-0.3,0.6-0.7,0.9-0.9
	c0.5-0.3,1-0.5,1.5-0.2c1,0.5,0.8,1.8,0.6,2.7v0l-0.7,2.8c1.3-0.3,2.5-0.7,3.7-1c1.9-5.3,3.3-10.7,4.3-16.2v0l0,0
	c0.1-0.6,0.4-1.8-0.2-2.3c-0.4-0.3-1-0.2-1.4-0.2c-0.8,0.1-1.6,0.5-2.2,0.9c-0.6,0.4-1.1,0.9-1.5,1.5v0c-2.9,4.5-5.7,9.1-8.5,13.6
	c-0.7,1.1-2.1,2.1-3.4,1.5c-1-0.4-1.3-1.5-1.3-2.4c0.2-3.7,0.5-7.4,0.7-11.1c0-1.2-0.1-3-1.5-3.5c-0.6-0.2-1.2,0-1.7,0.2
	c-0.9,0.6-1.6,1.5-2.1,2.5h0c-3.5,6-6.1,12.5-8.4,19C99.1,26.5,100.3,26.5,101.5,26.5z M64.3,15.3c0-0.8,0.2-1.7,0.4-2.5
	c0.3-1.4,1.1-4.5,2.9-4.5c2.1,0,4.2,0,6.2-0.1h0c3.7,0,4.9,2,3.5,5.3l0,0v0c-0.4,0.8-1,1.5-1.6,2.2c-2,2-4.6,2.4-7.4,2.3
	c-0.3,0-0.6,0-0.8,0c-0.9,0-1.8-0.1-2.5-0.7C64.3,16.8,64.2,16.1,64.3,15.3z M94.5,26.4c0.1-0.5,0.3-0.9,0.5-1.4
	c1.2-3.4,2.2-6.8,3.1-10.2c0-0.3,0-1.1-0.3-1.2c-0.1-0.1-0.3,0-0.4,0c-0.5,0.2-0.9,0.6-1.3,0.9h0c-0.7,0.7-1.4,2.2-1.7,3.1
	c-0.7,1.7-1.1,3.4-1.6,5.2c-0.4,1.2-0.7,2.4-1.1,3.6C92.6,26.4,93.5,26.4,94.5,26.4z M81.8,25.7c0.1-0.1,0.1-0.3,0.2-0.4
	c0.4-1.2,0.9-2.4,1.4-3.6c0.4-0.9,0.7-1.9,1.1-2.9c0.4-1.2,0.7-2.4,0.9-3.7c0-0.4,0.1-1.2-0.4-1.5c-0.3-0.2-0.7-0.1-1.1,0
	c-0.7,0.2-1.2,0.8-1.6,1.5c-1.2,2.2-2.2,4.6-2.8,7v0.1l0,0c-0.5,1.2-1.5,2.8-3,2.4c-0.8-0.2-1.4-0.9-1.5-1.7l0,0v0
	c-0.2-1-0.8-1.8-1.6-2.4l-1-0.8l1.1-0.7c4.2-2.9,6.9-6.2,6.2-11.6c-0.7-2.9-5.9-2.9-8.2-2.9h0c-3.6,0-7.2-0.1-10.7-0.2
	c-0.7,2.2-1.5,4.4-2.2,6.6c-1.3,3.9-2.5,7.9-3.5,11.9c2,0.2,4.1,0.5,6.2,0.7c0.2-0.4,0.5-0.8,0.8-1.1L62,22h0.4
	c2.4,0,4.9,0.1,7.3,0.1h0.1c1.6,0.1,3.3,0.8,4,2.4c0,0.1,0.1,0.2,0.1,0.4C76.6,25.3,79.2,25.5,81.8,25.7z M51.3,22.3
	c0.3-0.8,0.5-1.5,0.7-2.3c0.4-1.4,0.9-3.6,0.1-4.9c0-0.1-0.1-0.2-0.2-0.3c-0.4-0.3-0.7-0.6-1.1-0.7c-1.9-1-4.2-1-6.2-0.6
	c-1.8,0.4-3.8,1.1-5.3,2.2c-0.7,0.5-2.1,1.5-2.2,2.5v0.1l0,0.1c0,0.4,1,0.8,1.3,0.9c0.3,0.1,1.2,0.3,1.5,0.1l0,0l0.1-0.1
	c1.8-2,3.8-3.2,6.5-2c0.6,0.2,1,0.7,1.3,1.3c0.6,1.1,0.3,2.5-0.4,3.5C48.8,22,50,22.2,51.3,22.3z M26.1,21.1
	c0.2-2.4,0.9-4.8,2.3-7.1c2-3.4,5.2-6.1,8.3-8.5c0.3-0.3,0.6-0.9,0.3-1.3c-0.3-0.4-1-0.2-1.3,0c-2.3,1.2-4.6,2.5-6.7,4
	c-2.6,1.8-5,3.8-7.3,6.1c-0.6,0.6-1.3,1.1-2,1.3c-0.7,0.2-1.5,0.1-2-0.3c-0.7-0.6-0.8-1.7-0.6-2.6v-0.1c0.7-2.1,1.4-4.2,1.8-6.3
	c0.1-0.5,0.2-1.1,0-1.5c0-0.1-0.1-0.2-0.2-0.3c-0.1,0-0.4,0-0.5,0.1c-0.4,0.2-0.8,0.7-1,1.2c-2.8,4.8-5,9.9-6.9,15.1
	c-0.6,1.6-1.1,3.2-1.7,4.8C13.3,22.8,19.3,21.4,26.1,21.1z M133.3,19.9c2-4.4,3.7-9,5.2-13.6c0.2-0.5,0.2-1.1-0.2-1.5
	c-0.4-0.4-1-0.4-1.5-0.3c-0.6,0.1-1.1,0.4-1.4,1v0c-0.7,1.2-1.3,2.6-1.8,3.9c-0.7,1.7-1.2,3.4-1.7,5.2c-0.7,2.2-1.3,4.5-1.9,6.7
	C131.1,21,132.2,20.5,133.3,19.9z"/>
<path class="st4" d="M145.3,28.4c-1.5-1.6-6.6-5.2-8.8-5.2c-5.5-0.1,2.7,6.1,3.3,7.1c1.9,1.9-9.5,3.7-9.3,8c0,0.7,0.4,0.8,1,0.6
	c2.3-0.9,6.5-3.1,8-3.9C141.8,33.8,148.1,31.3,145.3,28.4z M153.9,28.8c-1.4-1.5-6.2-4.8-8.1-4.9c-5.1-0.1,2.5,5.7,3.1,6.6
	c1.7,1.8-8.8,3.4-8.6,7.4c0,0.6,0.4,0.7,1,0.5c2.1-0.8,6-2.9,7.4-3.6C150.6,33.8,156.4,31.5,153.9,28.8z"/>
<path class="st5" d="M135.5,24.1c0,0.2,0.4,0.8,0.5,0.9c0.4,0.7,1,1.3,1.5,1.8c0.6,0.6,1.2,1.2,1.9,1.8c0.3,0.3,0.8,0.7,1.1,1.2
	c0.2,0.2,0.4,0.6,0.4,0.9c0,0,0,0,0,0.1c0.3-0.1,0.5-0.1,0.8-0.2c1.2-0.3,2.4-0.5,3.6-0.7c0-0.4-0.2-0.7-0.5-0.9
	c-1.3-1.4-6.4-5-8.2-5C136.4,23.9,135.7,23.9,135.5,24.1z"/>
<path class="st5" d="M144.8,24.8c0,0.6,1.5,2.1,1.9,2.5c0.6,0.6,1.1,1.1,1.7,1.6c0.1,0.1,0.3,0.3,0.6,0.5c1.5-0.1,3-0.1,4.3-0.1
	c-1.3-1.3-5.8-4.5-7.5-4.5C145.6,24.7,145,24.7,144.8,24.8z"/>
</svg>
